<svg width="619" height="600" viewBox="0 0 619 600" fill="none" xmlns="http://www.w3.org/2000/svg">
<path d="M309.312 572.087C479.018 572.087 616.625 444.457 616.625 287.043C616.625 129.63 479.018 2 309.312 2C139.607 2 2 129.63 2 287.043C2 359.738 31.3308 426.041 79.614 476.382C94.365 491.826 104.881 512.313 99.6229 533.079C93.8645 555.785 83.0881 576.873 68.1058 594.752C80.0969 596.931 92.2562 598.018 104.437 598C148.212 598 188.777 584.11 222.069 560.444C249.728 568.044 279.025 572.087 309.312 572.087Z" fill="#38BDF8" stroke="#38BDF8" stroke-width="3.5" stroke-linecap="round" stroke-linejoin="round"/>
<path d="M455.651 213.006C455.651 196.65 442.548 183.391 426.384 183.391C410.219 183.391 397.116 196.65 397.116 213.006V287.044C397.116 303.399 410.219 316.658 426.384 316.658C442.548 316.658 455.651 303.399 455.651 287.044V213.006Z" fill="#F6F6F6"/>
<path d="M309.314 213.006C309.314 196.65 296.21 183.391 280.046 183.391C263.882 183.391 250.778 196.65 250.778 213.006V287.044C250.778 303.399 263.882 316.658 280.046 316.658C296.21 316.658 309.314 303.399 309.314 287.044V213.006Z" fill="#F6F6F6"/>
</svg>
